<svg xmlns="http://www.w3.org/2000/svg" viewBox="0 0 23.7 39.96"><defs><style>.a{fill:#009cdb}</style></defs><path class="a" d="M21.23 39.97H2.46A2.46 2.46 0 0 1 0 37.5V9.97a2.46 2.46 0 0 1 2.46-2.46h2.8a.59.59 0 0 1 0 1.17h-2.8a1.3 1.3 0 0 0-1.29 1.3V37.5a1.3 1.3 0 0 0 1.3 1.3h18.76a1.3 1.3 0 0 0 1.3-1.3V9.97a1.3 1.3 0 0 0-1.3-1.29h-5.75l-.88 1.55a1.84 1.84 0 0 1-.88 3.45H9.97a1.84 1.84 0 0 1-.87-3.45L3.83.87A.58.58 0 0 1 4.85.3l5.46 9.71h2.41L7.58.87A.58.58 0 0 1 8.6.3l3.25 5.77L15.08.3a.59.59 0 1 1 1.02.57l-3.59 6.39 1.2 2.14L18.86.3a.59.59 0 1 1 1.02.57l-3.74 6.64h5.1a2.46 2.46 0 0 1 2.47 2.46V37.5a2.46 2.46 0 0 1-2.47 2.47zM9.97 11.18a.67.67 0 0 0 0 1.34h3.75a.67.67 0 0 0 0-1.34z"/><path class="a" d="M18.1 31.29H5.6a.59.59 0 0 0 0 1.17h12.5a.59.59 0 1 0 0-1.17zM16.23 33.79H7.47a.59.59 0 0 0 0 1.17h8.76a.59.59 0 1 0 0-1.17zM11.85 22.45A1.84 1.84 0 0 1 10 20.6v-.63a1.84 1.84 0 1 1 3.68 0v.63a1.84 1.84 0 0 1-1.84 1.84zm0-3.13a.67.67 0 0 0-.67.66v.63a.67.67 0 0 0 1.34 0v-.63a.67.67 0 0 0-.67-.66z"/><path class="a" d="M11.85 29.33A6.84 6.84 0 0 1 7 17.65a6.86 6.86 0 0 1 8.61-.87.59.59 0 0 1-.64.97 5.67 5.67 0 0 0-7.14 8.75l.3.27v-1.16a2.47 2.47 0 0 1 2.46-2.46h2.5a2.47 2.47 0 0 1 2.46 2.46v1.16l.3-.28a5.69 5.69 0 0 0 .72-7.14.59.59 0 1 1 .98-.64 6.84 6.84 0 0 1-5.71 10.62zm-1.25-5a1.3 1.3 0 0 0-1.3 1.29v1.94a5.68 5.68 0 0 0 5.1 0v-1.94a1.3 1.3 0 0 0-1.3-1.3z"/></svg>