<svg xmlns="http://www.w3.org/2000/svg" viewBox="0 0 54.47 39.91"><defs><style>.a{fill:#009cdb}</style></defs><path class="a" d="M19.96 39.91h-5.9a2.68 2.68 0 0 1-2.57-1.95L7.3 22.86h-.07l-.13-.03-.2-.02a2.71 2.71 0 0 1-1.84-1.1H2.67A2.67 2.67 0 0 1 0 19.05v-5.46a2.67 2.67 0 0 1 2.67-2.67h2.38a2.71 2.71 0 0 1 1.84-1.1 87.03 87.03 0 0 0 25.92-7.7A2.68 2.68 0 0 1 35.42 0h2.73a2.68 2.68 0 0 1 2.67 2.67v27.3a2.68 2.68 0 0 1-2.67 2.67h-2.73a2.68 2.68 0 0 1-2.61-2.12 83.94 83.94 0 0 0-16.92-6.01l3.8 13.7h.27a.85.85 0 1 1 0 1.7zM9.14 23.15l4 14.35a.97.97 0 0 0 .92.7h3.87L14 24.08a84.78 84.78 0 0 0-4.86-.93zM33.6 9.1a.85.85 0 0 1 .85.85v20.01a.97.97 0 0 0 .97.97h2.73a.97.97 0 0 0 .97-.97V2.67a.97.97 0 0 0-.97-.96h-2.73a.97.97 0 0 0-.97.96v3.64a.85.85 0 0 1-1.7 0V4.05A89.36 89.36 0 0 1 7.1 11.5a.98.98 0 0 0-.86.96v7.7a.98.98 0 0 0 .86.95 89.21 89.21 0 0 1 25.64 7.47V9.95a.85.85 0 0 1 .85-.85zM2.67 12.62a.97.97 0 0 0-.96.97v5.46a.97.97 0 0 0 .96.96h1.88v-7.39zM53.61 15.46h-9.1a.85.85 0 0 0 0 1.71h9.1a.85.85 0 0 0 0-1.7zM51.67 6.88a.85.85 0 0 0-1.12-.44l-.91.39a.85.85 0 1 0 .67 1.56l.91-.39a.85.85 0 0 0 .45-1.12zM48.03 8.45A.85.85 0 0 0 46.91 8l-2.73 1.17a.85.85 0 1 0 .67 1.56l2.73-1.17a.85.85 0 0 0 .45-1.12zM51.22 24.63l-.91-.39a.85.85 0 0 0-.67 1.57l.91.39a.85.85 0 0 0 .67-1.57zM47.58 23.07l-2.73-1.17a.85.85 0 0 0-.67 1.57l2.73 1.17a.85.85 0 1 0 .67-1.57z"/></svg>