<svg xmlns="http://www.w3.org/2000/svg" viewBox="0 0 39.91 39.91"><defs><style>.a{fill:#009cdb}</style></defs><path class="a" d="M27.68 39.91H9.42a.64.64 0 1 1 0-1.27h6v-4.87H1.53A1.52 1.52 0 0 1 0 32.25V4.3a1.52 1.52 0 0 1 1.52-1.52h5.84V.64A.64.64 0 0 1 7.99 0h23.93a.64.64 0 0 1 .64.64v2.14h5.84a1.52 1.52 0 0 1 1.51 1.52v27.95a1.52 1.52 0 0 1-1.51 1.52h-1.67a.64.64 0 0 1 0-1.28h1.67a.24.24 0 0 0 .24-.24V4.3a.24.24 0 0 0-.24-.25h-5.84v3.03a.64.64 0 1 1-1.28 0v-5.8H8.63V27.3h2.12v-5.2a.64.64 0 0 1 .64-.64h10.08a.64.64 0 0 1 .64.64v5.2h5a.64.64 0 1 1 0 1.28H3.27a.64.64 0 1 1 0-1.28h4.09V4.05H1.52a.24.24 0 0 0-.25.24v27.96a.24.24 0 0 0 .25.24H27.1a.64.64 0 0 1 0 1.28h-2.62v4.87h3.19a.64.64 0 1 1 0 1.27zM16.7 33.77v4.87h6.51v-4.87zm-4.67-11.03v4.57h8.8v-4.57z"/><path class="a" d="M31.92 39.91a2.9 2.9 0 0 1-2.9-2.9V15.27v-.11a.08.08 0 0 0 0-.01l.02-.04a.2.2 0 0 1 0-.02.26.26 0 0 1 .02-.04V15l2.27-5.62a.64.64 0 0 1 1.18 0L34.77 15v.03l.01.04v.02a.33.33 0 0 1 .01.04V37a2.9 2.9 0 0 1-2.87 2.9zm-1.63-4.55v1.66a1.63 1.63 0 0 0 3.26 0v-1.66zm0-19.46v18.19h3.26v-18.2zm1.63-4.57l-1.32 3.3h2.64zM28.52 9.15H11.4a.64.64 0 0 1-.63-.63V4.03a.64.64 0 0 1 .63-.63h17.13a.64.64 0 0 1 .64.63v4.49a.64.64 0 0 1-.64.63zm-16.5-4.48v3.21H27.9v-3.2zM28.52 10.43H11.4a.64.64 0 0 0 0 1.27h17.13a.64.64 0 1 0 0-1.27zM21.47 13.82H11.4a.64.64 0 0 0 0 1.28h10.08a.64.64 0 1 0 0-1.27zM27.23 13.82h-3.21a.64.64 0 0 0 0 1.28h3.21a.64.64 0 1 0 0-1.27zM21.47 16.37H11.4a.64.64 0 0 0 0 1.28h10.08a.64.64 0 1 0 0-1.28zM27.11 16.37h-3.09a.64.64 0 0 0 0 1.28h3.09a.64.64 0 0 0 0-1.28zM21.47 18.92H11.4a.64.64 0 0 0 0 1.27h10.08a.64.64 0 1 0 0-1.27zM27.11 18.92h-3.09a.64.64 0 0 0 0 1.27h3.09a.64.64 0 0 0 0-1.27z"></path></svg>