<svg xmlns="http://www.w3.org/2000/svg" viewBox="0 0 45.87 39.76"><path d="M42.17 39.76a2.62 2.62 0 0 1-.44-.03.44.44 0 0 1-.17.03H4.45A4.45 4.45 0 0 1 0 35.3V.61A.6.6 0 0 1 .6 0h38.47a.6.6 0 0 1 .6.6v4.97h4.99a1.21 1.21 0 0 1 1.2 1.2v29.29a3.7 3.7 0 0 1-3.7 3.7zm2.49-32.98h-4.98v29.27a2.49 2.49 0 0 0 4.97 0zM1.2 1.2v34.1a3.24 3.24 0 0 0 3.24 3.23h34.98a3.7 3.7 0 0 1-.97-2.48V1.2zm27.35 32.63h-4.5a.6.6 0 1 1 0-1.21h4.5a.6.6 0 1 1 0 1.21zm8.02-.04h-5.24a.6.6 0 0 1-.6-.6v-6.12a.6.6 0 0 1 .6-.6h5.24a.6.6 0 0 1 .61.6v6.11a.6.6 0 0 1-.6.61zm-4.63-6.11v4.9h4.03v-4.9zM21.22 33.8h-7.36a.6.6 0 1 1 0-1.21h7.36a.6.6 0 1 1 0 1.21zm-10.33 0H3.92a.6.6 0 0 1-.6-.6V20.83a.6.6 0 0 1 .6-.6h6.98a.6.6 0 0 1 .6.6V33.2a.6.6 0 0 1-.6.61zM4.52 21.45V32.6h5.77V21.45zm22.7 9.3h-3.15a.6.6 0 1 1 0-1.21h3.15a.6.6 0 1 1 0 1.21zm-8.2-.04h-5.17a.6.6 0 1 1 0-1.21h5.17a.6.6 0 1 1 0 1.2zm9.54-3.05h-4.5a.6.6 0 1 1 0-1.2h4.5a.6.6 0 1 1 0 1.2zm-7.34-.04h-7.36a.6.6 0 1 1 0-1.21h7.36a.6.6 0 1 1 0 1.21zm13.28-3.04h-3.16a.6.6 0 0 1 0-1.21h3.16a.6.6 0 1 1 0 1.21zm-7.28 0h-3.15a.6.6 0 1 1 0-1.21h3.15a.6.6 0 1 1 0 1.21zm-8.2-.04h-5.16a.6.6 0 1 1 0-1.21h5.17a.6.6 0 1 1 0 1.2zm17.09-3.04h-4.77a.6.6 0 0 1 0-1.22h4.77a.6.6 0 1 1 0 1.22zm-7.28 0h-4.76a.6.6 0 1 1 0-1.22h4.76a.6.6 0 1 1 0 1.22zm-7.75-.05h-7.22a.6.6 0 1 1 0-1.21h7.22a.6.6 0 0 1 0 1.21zm13.25-4.28H24.25a.6.6 0 0 1 0-1.2h10.08a.6.6 0 1 1 0 1.2zm-12.75 0H3.92a.6.6 0 0 1-.6-.6V4.22a.6.6 0 0 1 .6-.6h17.67a.6.6 0 0 1 .6.6v12.35a.6.6 0 0 1-.6.6zM4.52 4.83v11.13h16.46V4.83zm31.1 9.26H24.24a.6.6 0 0 1 0-1.22H35.6a.6.6 0 0 1 0 1.22zM34.32 11H24.25a.6.6 0 0 1 0-1.21h10.08a.6.6 0 1 1 0 1.21zm-1.5-3.09h-8.58a.6.6 0 0 1 0-1.2h8.58a.6.6 0 1 1 0 1.2zm2.78-3.08H24.25a.6.6 0 0 1 0-1.22H35.6a.6.6 0 0 1 0 1.22z" fill="#009cdb"/></svg>