<svg xmlns="http://www.w3.org/2000/svg" viewBox="0 0 40 40"><defs><style>.a{fill:#009cdb}</style></defs><path class="a" d="M31.55 40H1.7A1.7 1.7 0 0 1 0 38.28V9.15a1.82 1.82 0 0 1 1.82-1.82h.85V2.67h2V1.33h2V0h26.66v12h.85A1.82 1.82 0 0 1 36 13.82V18h2.33A1.78 1.78 0 0 1 40 19.98v.12l-6.82 18.7a1.69 1.69 0 0 1-1.63 1.2zM2.67 34.58l-1.34 3.67a.36.36 0 0 0 .08.27.37.37 0 0 0 .3.15h29.84a.38.38 0 0 0 .36-.28l6.75-18.51c-.01-.16-.07-.55-.33-.55H8.49a.38.38 0 0 0-.37.28l-.01.06-.11.29-.04.12-1.3 3.54-2 5.48-2 5.48zM1.82 8.67a.49.49 0 0 0-.49.49v25.1l1.34-3.63V8.67zM4 4v23.03l.67-1.82V4zm2-1.33v18.88l.63-1.71.04-.12V2.67zm2-1.34v16.74h.04a1.7 1.7 0 0 1 .45-.07H32V1.33zm25.33 12V18h1.34v-4.18a.49.49 0 0 0-.5-.49z"/><path class="a" d="M12 11.33h16A.67.67 0 1 0 28 10H12a.67.67 0 0 0 0 1.33zM12 6.67h6.67a.67.67 0 0 0 0-1.34H12a.67.67 0 0 0 0 1.34zM12 16h16a.67.67 0 1 0 0-1.33H12A.67.67 0 0 0 12 16z"/></svg>